<mxfile host="app.diagrams.net" modified="2023-03-02T12:42:53.029Z" agent="5.0 (Windows NT 10.0; WOW64) AppleWebKit/537.36 (KHTML, like Gecko) Chrome/109.0.0.0 Safari/537.36 OPR/95.0.0.0" etag="3qCeHXb_8BTFpxgJ7zI0" version="20.8.23" type="github">
  <diagram name="Страница 1" id="bNeiAaEnyBH8WvRXnUEs">
    <mxGraphModel dx="1674" dy="766" grid="1" gridSize="10" guides="1" tooltips="1" connect="1" arrows="1" fold="1" page="1" pageScale="1" pageWidth="827" pageHeight="1169" math="0" shadow="0">
      <root>
        <mxCell id="0" />
        <mxCell id="1" parent="0" />
        <mxCell id="5VDwdmueqKIIs9lsqTtb-1" value="Клиентское ПО" style="swimlane;whiteSpace=wrap;html=1;" vertex="1" parent="1">
          <mxGeometry x="20" y="40" width="580" height="450" as="geometry" />
        </mxCell>
        <mxCell id="5VDwdmueqKIIs9lsqTtb-4" value="Связь с БД" style="ellipse;shape=umlControl;whiteSpace=wrap;html=1;" vertex="1" parent="5VDwdmueqKIIs9lsqTtb-1">
          <mxGeometry x="470" y="330" width="70" height="80" as="geometry" />
        </mxCell>
        <mxCell id="5VDwdmueqKIIs9lsqTtb-14" value="Таблица книг в наличии" style="ellipse;shape=umlEntity;whiteSpace=wrap;html=1;" vertex="1" parent="5VDwdmueqKIIs9lsqTtb-1">
          <mxGeometry x="290" y="285" width="80" height="80" as="geometry" />
        </mxCell>
        <mxCell id="5VDwdmueqKIIs9lsqTtb-15" value="" style="endArrow=open;endSize=12;dashed=1;html=1;rounded=0;exitX=1;exitY=0.5;exitDx=0;exitDy=0;" edge="1" parent="5VDwdmueqKIIs9lsqTtb-1" source="5VDwdmueqKIIs9lsqTtb-14" target="5VDwdmueqKIIs9lsqTtb-4">
          <mxGeometry x="-0.1624" y="32" width="160" relative="1" as="geometry">
            <mxPoint x="650" y="717" as="sourcePoint" />
            <mxPoint x="810" y="605" as="targetPoint" />
            <mxPoint as="offset" />
          </mxGeometry>
        </mxCell>
        <mxCell id="5VDwdmueqKIIs9lsqTtb-29" value="Система учета" style="ellipse;shape=umlControl;whiteSpace=wrap;html=1;" vertex="1" parent="5VDwdmueqKIIs9lsqTtb-1">
          <mxGeometry x="280" y="50" width="70" height="80" as="geometry" />
        </mxCell>
        <mxCell id="5VDwdmueqKIIs9lsqTtb-30" value="Списывание книги" style="ellipse;shape=umlControl;whiteSpace=wrap;html=1;" vertex="1" parent="5VDwdmueqKIIs9lsqTtb-1">
          <mxGeometry x="210" y="160" width="70" height="80" as="geometry" />
        </mxCell>
        <mxCell id="5VDwdmueqKIIs9lsqTtb-31" value="Поступление книги" style="ellipse;shape=umlControl;whiteSpace=wrap;html=1;" vertex="1" parent="5VDwdmueqKIIs9lsqTtb-1">
          <mxGeometry x="375" y="160" width="70" height="80" as="geometry" />
        </mxCell>
        <mxCell id="5VDwdmueqKIIs9lsqTtb-32" value="" style="endArrow=block;endSize=16;endFill=0;html=1;rounded=0;exitX=0.8;exitY=0.225;exitDx=0;exitDy=0;exitPerimeter=0;entryX=0.229;entryY=0.988;entryDx=0;entryDy=0;entryPerimeter=0;" edge="1" parent="5VDwdmueqKIIs9lsqTtb-1" source="5VDwdmueqKIIs9lsqTtb-30" target="5VDwdmueqKIIs9lsqTtb-29">
          <mxGeometry width="160" relative="1" as="geometry">
            <mxPoint x="630" y="390" as="sourcePoint" />
            <mxPoint x="790" y="390" as="targetPoint" />
          </mxGeometry>
        </mxCell>
        <mxCell id="5VDwdmueqKIIs9lsqTtb-33" value="" style="endArrow=block;endSize=16;endFill=0;html=1;rounded=0;entryX=0.871;entryY=0.963;entryDx=0;entryDy=0;entryPerimeter=0;exitX=0.143;exitY=0.288;exitDx=0;exitDy=0;exitPerimeter=0;" edge="1" parent="5VDwdmueqKIIs9lsqTtb-1" source="5VDwdmueqKIIs9lsqTtb-31" target="5VDwdmueqKIIs9lsqTtb-29">
          <mxGeometry width="160" relative="1" as="geometry">
            <mxPoint x="370" y="170" as="sourcePoint" />
            <mxPoint x="306" y="139" as="targetPoint" />
          </mxGeometry>
        </mxCell>
        <mxCell id="5VDwdmueqKIIs9lsqTtb-34" value="Обращение к системе" style="shape=umlBoundary;whiteSpace=wrap;html=1;" vertex="1" parent="5VDwdmueqKIIs9lsqTtb-1">
          <mxGeometry x="60" y="50" width="100" height="80" as="geometry" />
        </mxCell>
        <mxCell id="5VDwdmueqKIIs9lsqTtb-35" value="" style="endArrow=none;html=1;rounded=0;exitX=1.01;exitY=0.513;exitDx=0;exitDy=0;exitPerimeter=0;entryX=-0.029;entryY=0.55;entryDx=0;entryDy=0;entryPerimeter=0;" edge="1" parent="5VDwdmueqKIIs9lsqTtb-1" source="5VDwdmueqKIIs9lsqTtb-34" target="5VDwdmueqKIIs9lsqTtb-29">
          <mxGeometry width="50" height="50" relative="1" as="geometry">
            <mxPoint x="680" y="420" as="sourcePoint" />
            <mxPoint x="730" y="370" as="targetPoint" />
          </mxGeometry>
        </mxCell>
        <mxCell id="5VDwdmueqKIIs9lsqTtb-36" value="" style="endArrow=open;endFill=1;endSize=12;html=1;rounded=0;exitX=0.571;exitY=1.038;exitDx=0;exitDy=0;exitPerimeter=0;" edge="1" parent="5VDwdmueqKIIs9lsqTtb-1" source="5VDwdmueqKIIs9lsqTtb-30" target="5VDwdmueqKIIs9lsqTtb-14">
          <mxGeometry width="160" relative="1" as="geometry">
            <mxPoint x="630" y="390" as="sourcePoint" />
            <mxPoint x="790" y="390" as="targetPoint" />
          </mxGeometry>
        </mxCell>
        <mxCell id="5VDwdmueqKIIs9lsqTtb-37" value="" style="endArrow=open;endFill=1;endSize=12;html=1;rounded=0;exitX=0.343;exitY=1.013;exitDx=0;exitDy=0;exitPerimeter=0;entryX=0.85;entryY=0.075;entryDx=0;entryDy=0;entryPerimeter=0;" edge="1" parent="5VDwdmueqKIIs9lsqTtb-1" source="5VDwdmueqKIIs9lsqTtb-31" target="5VDwdmueqKIIs9lsqTtb-14">
          <mxGeometry width="160" relative="1" as="geometry">
            <mxPoint x="450" y="280" as="sourcePoint" />
            <mxPoint x="610" y="280" as="targetPoint" />
          </mxGeometry>
        </mxCell>
        <mxCell id="5VDwdmueqKIIs9lsqTtb-2" value="БД" style="swimlane;whiteSpace=wrap;html=1;" vertex="1" parent="1">
          <mxGeometry x="650" y="40" width="410" height="450" as="geometry" />
        </mxCell>
        <mxCell id="5VDwdmueqKIIs9lsqTtb-8" value="Книги в наличии" style="ellipse;shape=umlEntity;whiteSpace=wrap;html=1;" vertex="1" parent="5VDwdmueqKIIs9lsqTtb-2">
          <mxGeometry x="160" y="190" width="50" height="50" as="geometry" />
        </mxCell>
        <mxCell id="5VDwdmueqKIIs9lsqTtb-6" value="" style="endArrow=open;endSize=12;dashed=1;html=1;rounded=0;exitX=1;exitY=0.588;exitDx=0;exitDy=0;exitPerimeter=0;entryX=0;entryY=0.75;entryDx=0;entryDy=0;" edge="1" parent="1" source="5VDwdmueqKIIs9lsqTtb-4" target="5VDwdmueqKIIs9lsqTtb-2">
          <mxGeometry x="-0.1624" y="32" width="160" relative="1" as="geometry">
            <mxPoint x="290" y="530" as="sourcePoint" />
            <mxPoint x="800" y="660" as="targetPoint" />
            <mxPoint as="offset" />
          </mxGeometry>
        </mxCell>
      </root>
    </mxGraphModel>
  </diagram>
</mxfile>
